<svg width="473" height="506" viewBox="0 0 473 506" fill="none" xmlns="http://www.w3.org/2000/svg">
<rect width="52.9438" height="289.796" rx="26.4719" transform="matrix(0.87519 -0.48378 0.516397 0.856349 61.8877 125.796)" fill="#EF7E56" fill-opacity="0.8"/>
<rect width="52.9438" height="289.796" rx="26.4719" transform="matrix(0.87519 -0.48378 0.516397 0.856349 61.8877 125.796)" fill="#EF7E56" fill-opacity="0.8"/>
<rect width="52.9438" height="289.796" rx="26.4719" transform="matrix(0.87519 -0.48378 0.516397 0.856349 61.8877 125.796)" fill="#EF7E56" fill-opacity="0.8"/>
<rect width="52.9438" height="289.796" rx="26.4719" transform="matrix(0.87519 -0.48378 0.516397 0.856349 61.8877 125.796)" fill="#EF7E56" fill-opacity="0.8"/>
<rect width="52.9438" height="377.591" rx="26.4719" transform="matrix(0.87519 0.48378 -0.516397 0.856349 380.664 25)" fill="#EF7E56" fill-opacity="0.8"/>
<rect width="52.9438" height="377.591" rx="26.4719" transform="matrix(0.87519 0.48378 -0.516397 0.856349 380.664 25)" fill="#EF7E56" fill-opacity="0.8"/>
<rect width="52.9438" height="377.591" rx="26.4719" transform="matrix(0.87519 0.48378 -0.516397 0.856349 380.664 25)" fill="#EF7E56" fill-opacity="0.8"/>
<rect width="52.9438" height="377.591" rx="26.4719" transform="matrix(0.87519 0.48378 -0.516397 0.856349 380.664 25)" fill="#EF7E56" fill-opacity="0.8"/>
<path d="M95.8647 397.395C90.778 397.395 87.0913 398.818 84.8047 401.665C82.5647 404.465 81.4447 408.315 81.4447 413.215C81.4447 415.595 81.7247 417.765 82.2847 419.725C82.8447 421.638 83.6847 423.295 84.8047 424.695C85.9247 426.095 87.3247 427.192 89.0047 427.985C90.6847 428.732 92.6447 429.105 94.8847 429.105C96.098 429.105 97.1247 429.082 97.9647 429.035C98.8513 428.988 99.6213 428.895 100.275 428.755V411.885H111.195V435.895C109.888 436.408 107.788 436.945 104.895 437.505C102.001 438.112 98.4313 438.415 94.1847 438.415C90.5447 438.415 87.2313 437.855 84.2447 436.735C81.3047 435.615 78.7847 433.982 76.6847 431.835C74.5847 429.688 72.9513 427.052 71.7847 423.925C70.6647 420.798 70.1047 417.228 70.1047 413.215C70.1047 409.155 70.7347 405.562 71.9947 402.435C73.2547 399.308 74.9813 396.672 77.1747 394.525C79.368 392.332 81.9347 390.675 84.8747 389.555C87.8613 388.435 91.0347 387.875 94.3947 387.875C96.6813 387.875 98.7347 388.038 100.555 388.365C102.421 388.645 104.008 388.995 105.315 389.415C106.668 389.788 107.765 390.185 108.605 390.605C109.491 391.025 110.121 391.352 110.495 391.585L107.345 400.335C105.851 399.542 104.125 398.865 102.165 398.305C100.251 397.698 98.1513 397.395 95.8647 397.395ZM155.095 419.025C155.095 421.918 154.675 424.578 153.835 427.005C152.995 429.385 151.782 431.438 150.195 433.165C148.608 434.845 146.695 436.152 144.455 437.085C142.262 438.018 139.788 438.485 137.035 438.485C134.328 438.485 131.855 438.018 129.615 437.085C127.422 436.152 125.532 434.845 123.945 433.165C122.358 431.438 121.122 429.385 120.235 427.005C119.348 424.578 118.905 421.918 118.905 419.025C118.905 416.132 119.348 413.495 120.235 411.115C121.168 408.735 122.428 406.705 124.015 405.025C125.648 403.345 127.562 402.038 129.755 401.105C131.995 400.172 134.422 399.705 137.035 399.705C139.695 399.705 142.122 400.172 144.315 401.105C146.555 402.038 148.468 403.345 150.055 405.025C151.642 406.705 152.878 408.735 153.765 411.115C154.652 413.495 155.095 416.132 155.095 419.025ZM144.455 419.025C144.455 415.805 143.802 413.285 142.495 411.465C141.235 409.598 139.415 408.665 137.035 408.665C134.655 408.665 132.812 409.598 131.505 411.465C130.198 413.285 129.545 415.805 129.545 419.025C129.545 422.245 130.198 424.812 131.505 426.725C132.812 428.592 134.655 429.525 137.035 429.525C139.415 429.525 141.235 428.592 142.495 426.725C143.802 424.812 144.455 422.245 144.455 419.025ZM214.329 389.141L213.201 389.38C212.951 389.38 212.825 389.22 212.825 388.901C212.825 388.582 212.917 388.377 213.099 388.286C215.286 387.033 217.383 386.406 219.388 386.406C220.277 386.406 220.949 386.748 221.404 387.432C221.883 388.092 222.122 388.993 222.122 390.132C222.122 391.248 221.325 393.208 219.73 396.011C218.157 398.813 216.05 401.992 213.406 405.547C210.763 409.079 207.414 412.952 203.358 417.168C199.302 421.361 195.223 425.063 191.121 428.276C187.042 431.466 183.385 433.882 180.15 435.522C176.937 437.163 173.895 437.983 171.024 437.983C169.178 437.983 167.788 437.357 166.854 436.104C165.942 434.827 165.486 433.392 165.486 431.797C165.486 430.179 166.022 428.117 167.093 425.61C168.187 423.081 169.497 420.586 171.024 418.125C172.55 415.641 174.316 413.032 176.321 410.298C179.329 406.128 182.485 402.106 185.789 398.232C182.121 401.286 179.614 403.075 178.27 403.599C176.948 404.123 175.797 404.385 174.818 404.385C173.861 404.385 173.109 403.986 172.562 403.188C172.038 402.368 171.776 401.491 171.776 400.557C171.776 399.6 172.152 398.654 172.903 397.72C173.678 396.763 174.407 396.284 175.091 396.284C175.342 396.284 175.467 396.375 175.467 396.558C175.467 396.74 175.376 396.956 175.194 397.207C175.034 397.435 174.954 397.594 174.954 397.686C174.954 397.936 175.148 398.062 175.535 398.062C175.923 398.062 176.504 397.891 177.278 397.549C178.053 397.207 179.967 396.011 183.021 393.96C186.097 391.909 188.353 390.212 189.788 388.867C190.358 388.366 191.167 388.115 192.215 388.115C193.286 388.115 194.357 388.377 195.428 388.901C196.499 389.403 197.034 389.915 197.034 390.439C197.034 390.553 197.012 390.667 196.966 390.781C196.92 390.872 196.875 391.1 196.829 391.465C196.784 391.807 196.601 392.228 196.282 392.729C195.986 393.208 193.628 396.535 189.207 402.71C178.156 418.114 172.63 427.217 172.63 430.02C172.63 431.045 173.029 431.558 173.826 431.558C174.92 431.558 177.039 430.566 180.184 428.584C183.328 426.579 186.245 424.368 188.934 421.953C191.623 419.515 194.266 416.951 196.863 414.263C199.461 411.574 202.139 408.646 204.896 405.479C207.653 402.311 209.988 399.246 211.903 396.284C213.817 393.322 214.774 391.077 214.774 389.551C214.774 389.277 214.625 389.141 214.329 389.141ZM233.231 411.528C234.962 411.528 235.828 412.121 235.828 413.306C235.828 413.944 235.68 414.411 235.384 414.707C235.088 415.003 234.45 415.994 233.47 417.681C232.513 419.344 231.442 421.486 230.257 424.106C229.095 426.704 228.343 428.926 228.001 430.771C227.933 430.999 227.899 431.318 227.899 431.729C227.899 432.982 228.24 433.608 228.924 433.608C229.608 433.608 230.417 433.289 231.351 432.651C232.285 431.991 233.117 431.296 233.846 430.566C234.575 429.814 235.281 429.051 235.965 428.276C236.671 427.502 237.093 427.057 237.23 426.943C237.366 426.829 237.571 426.772 237.845 426.772C238.278 426.772 238.54 427.103 238.631 427.764C238.722 428.424 238.768 429.108 238.768 429.814C238.768 430.521 238.699 431.011 238.563 431.284C237.902 432.583 236.444 434.144 234.188 435.967C231.955 437.79 229.915 438.701 228.07 438.701C226.247 438.701 224.902 438.143 224.036 437.026C223.17 435.91 222.737 434.679 222.737 433.335C222.737 431.968 222.965 430.771 223.421 429.746C221.53 432.207 219.354 434.292 216.893 436.001C214.455 437.71 212.461 438.564 210.911 438.564C209.362 438.564 208.097 438.097 207.117 437.163C205.864 436.001 205.237 434.395 205.237 432.344C205.237 430.27 205.693 428.197 206.605 426.123C207.539 424.027 208.758 422.124 210.262 420.415C211.766 418.683 213.418 417.111 215.218 415.698C219 412.736 222.487 411.255 225.677 411.255C226.907 411.255 227.91 411.46 228.685 411.87C229.459 412.28 229.949 412.793 230.154 413.408C230.701 412.588 231.157 412.075 231.522 411.87C231.909 411.642 232.479 411.528 233.231 411.528ZM228.685 415.322C224.788 415.322 220.755 417.487 216.585 421.816C215.104 423.366 213.737 425.223 212.484 427.388C211.253 429.552 210.638 431.034 210.638 431.831C210.638 432.629 210.866 433.027 211.321 433.027C211.959 433.027 213.737 431.774 216.653 429.268C219.57 426.738 221.507 424.881 222.464 423.696C223.512 422.375 225.586 419.583 228.685 415.322ZM257.874 429.917C259.059 429.165 259.822 428.652 260.164 428.379C260.506 428.083 260.905 427.741 261.361 427.354C261.816 426.966 262.192 426.772 262.488 426.772C262.944 426.772 263.172 427.297 263.172 428.345C263.172 429.37 262.659 430.487 261.634 431.694C260.631 432.879 259.378 433.893 257.874 434.736C256.37 435.557 254.764 436.274 253.055 436.89C249.66 438.143 246.766 438.77 244.373 438.77C242.003 438.77 239.861 437.995 237.947 436.445C236.033 434.873 235.076 432.834 235.076 430.327C235.076 427.798 235.703 425.28 236.956 422.773C238.209 420.244 239.816 418.034 241.776 416.143C243.758 414.229 246.048 412.679 248.646 411.494C251.266 410.309 253.852 409.717 256.404 409.717C257.635 409.717 258.74 410.07 259.72 410.776C260.7 411.483 261.19 412.451 261.19 413.682C261.19 414.912 260.574 416.393 259.344 418.125C258.136 419.834 256.906 420.688 255.653 420.688C254.194 420.688 253.465 419.993 253.465 418.604C253.465 418.239 253.807 417.59 254.49 416.655C255.174 415.721 255.516 415.094 255.516 414.775C255.516 414.434 255.39 414.263 255.14 414.263C253.887 414.263 252.542 414.696 251.107 415.562C249.671 416.427 248.361 417.339 247.176 418.296C246.014 419.253 244.909 420.324 243.861 421.509C241.582 424.084 240.443 426.761 240.443 429.541C240.443 430.658 240.796 431.626 241.502 432.446C242.231 433.244 243.439 433.643 245.125 433.643C246.834 433.643 248.543 433.449 250.252 433.062C251.961 432.651 253.362 432.218 254.456 431.763C255.573 431.284 256.712 430.669 257.874 429.917ZM287.303 411.528C289.035 411.528 289.901 412.121 289.901 413.306C289.901 413.944 289.752 414.411 289.456 414.707C289.16 415.003 288.522 415.994 287.542 417.681C286.585 419.344 285.514 421.486 284.329 424.106C283.167 426.704 282.415 428.926 282.073 430.771C282.005 430.999 281.971 431.318 281.971 431.729C281.971 432.982 282.313 433.608 282.996 433.608C283.68 433.608 284.489 433.289 285.423 432.651C286.357 431.991 287.189 431.296 287.918 430.566C288.647 429.814 289.354 429.051 290.037 428.276C290.744 427.502 291.165 427.057 291.302 426.943C291.439 426.829 291.644 426.772 291.917 426.772C292.35 426.772 292.612 427.103 292.703 427.764C292.794 428.424 292.84 429.108 292.84 429.814C292.84 430.521 292.772 431.011 292.635 431.284C291.974 432.583 290.516 434.144 288.26 435.967C286.027 437.79 283.987 438.701 282.142 438.701C280.319 438.701 278.974 438.143 278.109 437.026C277.243 435.91 276.81 434.679 276.81 433.335C276.81 431.968 277.038 430.771 277.493 429.746C275.602 432.207 273.426 434.292 270.965 436.001C268.527 437.71 266.533 438.564 264.984 438.564C263.434 438.564 262.169 438.097 261.19 437.163C259.936 436.001 259.31 434.395 259.31 432.344C259.31 430.27 259.765 428.197 260.677 426.123C261.611 424.027 262.83 422.124 264.334 420.415C265.838 418.683 267.49 417.111 269.29 415.698C273.073 412.736 276.559 411.255 279.749 411.255C280.98 411.255 281.982 411.46 282.757 411.87C283.532 412.28 284.022 412.793 284.227 413.408C284.774 412.588 285.229 412.075 285.594 411.87C285.981 411.642 286.551 411.528 287.303 411.528ZM282.757 415.322C278.861 415.322 274.827 417.487 270.657 421.816C269.176 423.366 267.809 425.223 266.556 427.388C265.325 429.552 264.71 431.034 264.71 431.831C264.71 432.629 264.938 433.027 265.394 433.027C266.032 433.027 267.809 431.774 270.726 429.268C273.642 426.738 275.579 424.881 276.536 423.696C277.584 422.375 279.658 419.583 282.757 415.322ZM313.245 393.481L314.647 393.823C314.852 393.823 315.034 393.926 315.194 394.131C315.353 394.336 315.433 394.53 315.433 394.712C315.433 394.894 315.194 395.384 314.715 396.182C314.236 396.979 313.667 397.891 313.006 398.916C312.368 399.919 312.026 400.465 311.981 400.557C313.758 400.42 315.011 400.352 315.74 400.352C316.492 400.352 317.005 400.409 317.278 400.522C317.552 400.614 317.86 400.898 318.201 401.377C318.566 401.833 318.896 402.186 319.193 402.437C319.489 402.664 319.637 403.018 319.637 403.496C319.637 403.975 319.341 404.385 318.748 404.727C318.179 405.046 317.563 405.239 316.903 405.308C311.616 405.832 308.699 406.105 308.153 406.128C306.307 408.953 303.721 413.363 300.394 419.355C297.09 425.326 295.335 429.062 295.13 430.566C295.039 431.25 294.993 431.808 294.993 432.241C294.993 433.13 295.46 433.574 296.395 433.574C297.329 433.574 298.366 433.221 299.505 432.515C300.644 431.785 301.693 430.999 302.65 430.156C305.202 427.878 306.569 426.738 306.751 426.738C307.344 426.738 307.64 427.764 307.64 429.814C307.64 430.931 307.127 431.934 306.102 432.822C303.8 434.805 301.863 436.297 300.291 437.3C298.719 438.302 297.147 438.804 295.574 438.804C295.233 438.804 294.914 438.77 294.617 438.701C292.794 438.359 291.45 437.699 290.584 436.719C289.741 435.716 289.32 434.372 289.32 432.686C289.342 430.999 289.844 428.96 290.823 426.567C291.826 424.152 293.079 421.589 294.583 418.877C297.044 414.456 299.505 410.309 301.966 406.436L300.667 406.606C298.024 406.903 296.486 407.051 296.053 407.051H295.745C295.084 407.051 294.446 406.925 293.831 406.675C293.216 406.401 292.908 406.071 292.908 405.684C292.908 405.296 293.068 404.92 293.387 404.556C293.729 404.191 293.934 403.906 294.002 403.701C294.162 403.2 294.754 402.642 295.779 402.026C296.828 401.411 297.614 401.092 298.138 401.069C298.662 401.024 299.163 400.99 299.642 400.967C300.143 400.944 300.69 400.921 301.282 400.898C301.898 400.876 302.365 400.853 302.684 400.83L305.76 400.693C307.674 397.822 308.984 395.977 309.691 395.156C310.42 394.336 310.841 393.892 310.955 393.823C311.069 393.732 311.297 393.687 311.639 393.687L313.245 393.481ZM327.02 399.976C327.02 401.274 326.416 402.585 325.208 403.906C324 405.205 322.736 405.854 321.414 405.854C320.115 405.854 319.466 405.171 319.466 403.804C319.466 402.437 320.036 401.138 321.175 399.907C322.337 398.654 323.613 398.027 325.003 398.027C325.618 398.027 326.108 398.198 326.473 398.54C326.837 398.882 327.02 399.36 327.02 399.976ZM321.483 429.814C321.483 430.498 321.414 430.988 321.278 431.284C320.161 433.563 318.384 435.409 315.945 436.821C313.507 438.211 311.388 438.906 309.588 438.906C307.788 438.906 306.238 438.302 304.94 437.095C303.641 435.887 302.991 434.657 302.991 433.403C302.991 432.15 303.618 430.327 304.871 427.935C306.125 425.542 307.378 423.332 308.631 421.304C309.884 419.276 310.511 418.182 310.511 418.022C310.511 417.84 310.272 417.498 309.793 416.997C309.337 416.496 309.11 416.131 309.11 415.903C309.11 415.653 309.577 415.026 310.511 414.023C311.468 412.998 312.619 411.995 313.963 411.016C315.33 410.013 316.367 409.512 317.073 409.512C317.803 409.512 318.452 409.831 319.022 410.469C319.591 411.107 319.876 411.688 319.876 412.212C319.876 412.736 317.165 417.669 311.741 427.012C311.673 427.148 311.479 427.456 311.16 427.935C310.864 428.39 310.625 428.778 310.443 429.097C310.283 429.393 310.089 429.757 309.861 430.19C309.406 431.102 309.178 431.865 309.178 432.48C309.178 433.255 309.702 433.643 310.75 433.643C311.798 433.643 312.881 433.289 313.997 432.583C315.137 431.854 316.116 431.056 316.937 430.19C319.079 427.889 320.298 426.738 320.594 426.738C321.186 426.738 321.483 427.764 321.483 429.814ZM342.195 411.46C342.879 411.46 343.574 411.768 344.28 412.383C345.01 412.998 345.374 413.944 345.374 415.22C345.374 416.473 344.93 418.114 344.041 420.142C343.153 422.147 341.933 424.198 340.384 426.294C338.834 428.368 337.125 430.327 335.257 432.173C333.411 433.996 331.406 435.5 329.241 436.685C327.099 437.847 325.151 438.428 323.397 438.428C321.642 438.428 320.229 437.881 319.158 436.787C318.11 435.671 317.586 434.132 317.586 432.173C317.586 430.19 318.065 428.003 319.022 425.61C320.001 423.218 321.255 421.11 322.781 419.287C324.308 417.441 325.96 415.789 327.737 414.331C331.452 411.346 334.71 409.854 337.513 409.854C338.766 409.854 339.712 410.161 340.35 410.776C340.578 410.981 340.692 411.164 340.692 411.323V411.528C341.011 411.483 341.512 411.46 342.195 411.46ZM338.743 416.006H338.504C337.707 416.006 337.308 415.425 337.308 414.263C335.644 414.81 333.901 415.767 332.078 417.134C330.255 418.501 328.626 420.119 327.191 421.987C324.274 425.724 322.793 428.88 322.747 431.455C322.747 432.731 323.214 433.369 324.149 433.369C325.083 433.369 326.473 432.754 328.319 431.523C330.164 430.293 331.987 428.538 333.787 426.26C335.61 423.981 336.966 422.01 337.855 420.347C338.766 418.66 339.222 417.521 339.222 416.929C339.222 416.313 339.062 416.006 338.743 416.006ZM362.464 432.241C362.464 433.244 363.148 433.745 364.515 433.745C365.244 433.745 366.155 433.381 367.249 432.651C368.366 431.922 369.368 431.125 370.257 430.259C372.627 427.912 373.971 426.738 374.29 426.738C374.883 426.738 375.179 427.593 375.179 429.302C375.179 431.011 374.643 432.184 373.572 432.822C370.314 435.762 367.796 437.55 366.019 438.188C365.016 438.53 363.911 438.69 362.703 438.667C361.496 438.644 360.299 438.12 359.114 437.095C357.93 436.069 357.337 434.827 357.337 433.369C357.337 431.888 357.724 430.213 358.499 428.345C359.274 426.476 360.06 424.881 360.858 423.56C361.678 422.215 362.681 420.666 363.865 418.911C365.05 417.134 365.677 416.029 365.745 415.596L365.677 415.527C364.925 415.596 363.056 417.077 360.071 419.971C357.109 422.865 354.66 425.382 352.723 427.524C350.786 429.666 348.473 432.526 345.784 436.104C345.032 437.083 344.417 437.573 343.939 437.573C343.46 437.573 342.822 437.425 342.025 437.129C341.204 436.81 340.703 436.582 340.521 436.445C340.338 436.309 340.247 436.104 340.247 435.83C340.247 435.557 340.327 435.226 340.487 434.839C340.646 434.429 340.806 434.098 340.965 433.848C341.102 433.574 341.341 433.164 341.683 432.617C342.025 432.07 342.697 430.92 343.699 429.165C344.725 427.388 346.286 424.744 348.382 421.235C350.478 417.726 351.732 415.607 352.142 414.878C353.008 413.374 353.714 412.28 354.261 411.597C355.286 410.298 357.018 409.648 359.456 409.648C360.003 409.648 360.277 409.99 360.277 410.674C360.277 411.745 359.285 413.761 357.303 416.724L355.867 418.877C359.809 414.502 363.136 411.733 365.848 410.571C367.169 410.002 368.354 409.717 369.403 409.717C370.473 409.717 371.317 410.002 371.932 410.571C372.57 411.141 372.889 411.779 372.889 412.485C372.889 413.169 372.65 414.001 372.171 414.98C371.693 415.938 371.203 416.803 370.701 417.578C370.223 418.33 369.585 419.287 368.787 420.449C367.99 421.611 367.557 422.249 367.488 422.363C367.42 422.454 367.238 422.728 366.942 423.184C366.668 423.617 366.463 423.936 366.326 424.141C366.19 424.346 365.962 424.71 365.643 425.234C365.324 425.736 365.062 426.157 364.857 426.499C364.674 426.841 364.435 427.262 364.139 427.764C363.865 428.265 363.638 428.698 363.455 429.062C363.296 429.427 363.125 429.826 362.943 430.259C362.624 431.056 362.464 431.717 362.464 432.241Z" fill="black" fill-opacity="0.5"/>
<path d="M220.455 223.349C220.455 211.089 230.393 201.151 242.653 201.151H376.604C388.863 201.151 398.802 211.089 398.802 223.349C398.802 235.608 388.863 245.547 376.604 245.547H242.653C230.393 245.547 220.455 235.608 220.455 223.349Z" fill="#305973"/>
<path d="M377.167 203.129C389.558 202.771 400.018 212.625 398.575 224.938C395.002 255.421 382.946 284.759 363.509 309.342C339.331 339.922 305.105 361.816 266.346 371.498C227.587 381.18 186.552 378.086 149.854 362.713C113.156 347.34 82.9322 320.585 64.052 286.758C45.1718 252.931 38.7352 214.003 45.7794 176.246C52.8236 138.489 72.9382 104.102 102.882 78.6269C132.826 53.1515 170.856 38.071 210.842 35.8154C243.207 33.9898 275.329 40.6519 303.822 54.8874C314.823 60.3834 317.277 74.4741 310.04 84.416C303.207 93.8016 290.24 95.9442 279.712 91.0531C259.225 81.536 236.426 77.1349 213.464 78.4301C183.474 80.1218 154.952 91.4322 132.494 110.539C110.036 129.645 94.9502 155.435 89.667 183.753C84.3839 212.07 89.2113 241.267 103.371 266.637C117.532 292.007 140.2 312.074 167.723 323.603C195.247 335.133 226.023 337.454 255.092 330.192C284.161 322.931 309.831 306.51 327.964 283.575C341.422 266.555 350.147 246.682 353.512 225.81C355.462 213.716 364.923 203.483 377.167 203.129Z" fill="#305973"/>
</svg>
